<svg width="100" height="85" viewBox="0 0 100 85" fill="none" xmlns="http://www.w3.org/2000/svg">
<g clip-path="url(#clip0_42_718)">
<path d="M99.5055 38.8151C99.5055 66.4401 77.9258 84.0327 50.3008 84.0327C22.6758 84.0327 1.46729 66.4401 1.46729 38.8151C1.46729 11.1901 22.6758 5.46875 50.3008 5.46875C77.9258 5.46875 99.5055 11.1901 99.5055 38.8151Z" fill="#867A7A"/>
<path d="M9.23822 49.9069C2.70232 49.9069 -0.365527 45.9054 0.034629 37.3687C0.434785 28.8319 4.16958 17.8944 10.3053 12.1588C16.441 6.42327 23.6438 -1.17972 48.5869 0.154136C73.53 1.48799 82.6002 2.95525 91.2702 10.4248C99.9403 17.8944 100.207 28.0316 99.9403 37.3687C99.6735 46.7057 98.3396 51.1074 91.2702 49.9069C84.2008 48.7064 80.9995 43.6378 75.3973 43.6378C69.7952 43.6378 67.2905 45.772 66.7273 50.8406C66.1641 55.9093 67.7944 58.8438 76.8646 58.8438C85.9348 58.8438 96.7044 55.2215 96.7044 55.2215C96.7044 55.2215 91.4678 68.4059 83.2325 74.8292C74.9972 81.2525 62.5923 84.1871 52.0549 84.7205C41.5175 85.254 23.6092 79.2309 16.1396 73.2286C8.67005 67.2262 4.26833 55.2215 4.26833 55.2215C4.26833 55.2215 20.8427 61.7781 28.0455 61.6448C35.2483 61.5115 38.7163 57.3765 38.7163 52.9748C38.7163 48.5731 37.916 42.5707 29.5128 42.5707C21.1095 42.5707 15.7741 49.9069 9.23822 49.9069Z" fill="black"/>
</g>
<defs>
<clipPath id="clip0_42_718">
<rect width="100" height="84.75" fill="white"/>
</clipPath>
</defs>
</svg>
